<?xml version="1.0" encoding="UTF-8" standalone="no"?>
<svg xmlns="http://www.w3.org/2000/svg" width="1000" height="300">
<!-- Font: HackGlitch-DOlY9.otf -->
  <path d="M230 354C232 353 221 353 204 353C186 353 175 353 178 355C180 356 188 357 197 357C209 357 224 356 230 354ZM385 364C403 364 427 361 427 357C427 354 416 353 378 353H355C314 353 296 353 296 354C296 354 304 355 321 356C343 358 365 361 367 362C370 363 377 364 385 364ZM515 384C514 381 512 384 512 390C512 396 514 398 515 395C516 392 516 387 515 384ZM341 423C341 417 289 408 249 408H246C214 408 199 413 199 423C199 425 231 427 270 427C309 427 341 425 341 423ZM307 450C300 449 295 446 295 444C295 442 270 440 237 440C190 440 179 442 175 446C175 446 174 446 174 447C174 450 183 452 214 452H244C281 452 308 451 308 450ZM67 783 54 777V744V709H42C32 709 29 709 31 703C32 699 35 691 36 684C38 675 41 672 49 672C59 672 60 670 51 669C38 667 40 660 54 657C61 656 66 652 66 650C66 648 68 640 69 636C71 629 71 627 65 627H63C61 627 59 627 59 624C59 620 61 611 67 591C71 574 74 557 74 537C74 519 71 499 68 477C66 460 65 461 52 461C40 461 37 459 37 450C37 441 39 440 52 440H66V411C66 392 65 382 62 381C58 380 56 355 56 333C56 313 58 294 61 294C70 294 70 289 66 272C63 261 63 254 66 251C69 248 71 243 71 238C71 232 68 226 63 223C56 220 54 214 54 201C54 195 55 182 55 166V139L54 94H39C29 94 25 92 25 88C25 84 29 82 39 82C53 82 54 81 55 62L56 43L97 36C117 33 128 30 134 30C140 30 142 31 144 34C147 38 149 51 149 62V82H135C125 82 120 84 120 88C120 92 125 94 133 94C147 94 148 97 139 109C131 119 130 135 137 137C140 138 141 144 138 157C135 171 133 189 133 202C133 214 135 223 138 223C141 223 147 230 150 238C159 257 159 256 149 256C141 256 142 259 144 270C147 287 153 294 163 294C167 294 172 297 173 299C174 301 187 302 201 302C215 302 229 301 230 299C231 297 244 294 255 294C266 294 277 295 281 297C285 299 305 303 325 304C345 305 373 308 391 309L423 312L430 299C434 290 437 275 437 255C437 238 438 223 440 222C441 221 442 186 442 153C442 132 442 111 441 100C441 97 436 94 428 94C412 94 412 85 429 83C437 82 441 80 441 74C441 70 444 64 447 61C453 57 456 58 473 67C484 73 497 78 499 77C502 76 506 78 507 81C508 85 502 85 483 83C476 82 471 82 465 82C449 82 438 85 438 89C438 93 458 94 479 94C508 94 515 95 515 99C515 112 508 120 508 126C508 128 509 130 512 132C516 134 515 140 512 154C511 161 510 167 510 170C510 177 513 178 522 178C531 178 539 186 533 192C532 193 526 194 519 194C508 194 507 196 508 208C509 220 510 221 527 222L543 224L544 307V316C544 362 542 397 540 407C537 419 537 425 540 426C551 430 544 440 526 442C516 443 507 446 507 447C507 454 518 461 529 461C539 461 540 462 539 470C538 478 533 592 532 655C532 663 530 665 519 665H506L520 668L534 672H519L503 673V692C503 711 504 709 518 709H532V736C532 766 531 771 515 774C506 776 501 774 492 766C485 759 476 756 465 755C454 754 446 751 446 747C442 709 442 710 419 709L397 708L396 690L395 673L410 672H426L409 668L392 665H408L423 664L425 613C426 569 428 560 436 547C447 529 447 527 437 527C430 527 428 524 428 514C428 505 431 502 435 502C438 502 441 499 440 495C439 486 423 483 366 477C345 475 316 470 304 468C292 466 268 463 251 463H244C225 463 218 465 207 473C197 480 194 484 197 486C200 488 199 490 193 490C187 490 181 493 180 496C179 499 174 502 170 502C163 502 163 505 164 526V558V605L163 659H147C138 659 133 661 133 663C133 665 138 668 148 669C148 669 164 672 164 672C164 672 148 672 148 672L133 673V692V709H149H166V741C166 785 166 788 126 788H119C96 788 75 786 67 783ZM319 486H345H369C372 486 375 487 375 487H344H312C312 487 315 486 319 486Z" transform="translate(50, 200) scale(0.096, -0.096)" fill="#000000" />
  <path d="M109 320C105 319 99 319 96 320C93 321 97 322 104 322C111 322 113 321 109 320ZM313 477C317 458 320 449 320 443C320 440 318 437 316 437C313 437 311 435 311 432C311 429 314 425 318 425C324 425 324 425 320 422C316 420 314 414 316 403C318 392 321 388 328 388C341 388 363 352 363 331C363 315 361 313 343 309C332 306 319 299 311 291C299 279 295 278 267 278C248 278 231 280 221 284L204 291V329C204 361 206 368 213 377C217 384 225 388 231 388C238 388 242 392 245 401C251 418 250 421 242 423C238 424 239 425 246 425C259 425 263 437 250 437C240 437 238 439 245 458C253 480 256 483 285 483C303 483 312 480 313 477ZM353 484C345 483 334 483 326 484C318 485 326 485 340 485C354 485 361 485 353 484ZM300 488C292 487 281 487 273 488C265 489 272 490 286 490C300 490 308 489 300 488ZM264 753C260 751 250 749 242 750H233C216 750 209 743 209 730C209 723 205 713 202 709C195 700 197 699 209 699C222 699 225 694 214 690C211 689 209 683 209 679C209 672 207 672 199 672C192 672 183 663 170 649L151 628V566C151 532 150 500 149 497C147 493 141 491 125 491C114 491 108 489 114 488C134 485 141 484 141 480C141 478 139 474 138 471C129 451 118 443 100 441C90 440 94 438 113 438C136 438 143 436 143 432C143 428 136 425 113 424H83L110 422C128 421 135 420 135 413C135 410 134 407 131 401C128 394 122 393 100 393H74L73 347C72 308 70 302 62 291C55 282 51 267 48 245L43 212H31C24 212 21 212 21 211C21 209 39 204 58 204C71 204 81 202 81 200C81 198 69 196 53 196C34 196 23 194 20 190C17 187 14 155 13 102L11 20H54H96L102 34C105 44 112 51 123 58C132 64 141 71 143 78C145 86 149 90 155 90C159 90 162 91 161 93C160 95 146 98 132 98C118 98 106 99 106 101C106 103 113 108 121 112L135 120L115 122L95 125H120C138 125 143 128 143 132C143 140 164 149 187 152C206 154 227 157 241 157C250 157 257 155 260 154C266 152 272 155 282 163C298 175 322 182 348 182H354C376 181 385 176 409 153L425 139V98C425 76 426 49 427 39L431 21L451 18C457 17 467 17 478 17C489 17 502 17 514 18L557 21L555 33C554 40 549 54 543 65C538 74 535 81 535 85C535 89 539 90 545 90C549 90 552 93 552 97C552 106 544 122 530 141C522 152 507 186 507 193C507 194 519 195 533 196L558 199L533 200C513 201 497 205 497 211C497 213 499 212 499 216C499 222 497 234 495 246C491 273 490 279 482 279C474 280 473 280 482 281C490 282 490 284 488 293C487 299 481 313 474 324C467 335 463 348 463 355C463 375 455 388 444 388C436 388 434 391 433 403C432 411 433 420 435 421C437 422 435 424 429 425C416 428 415 437 427 437C436 437 436 439 434 453C433 462 429 471 427 475C425 482 427 483 448 484H473L444 486L415 488L413 505C411 521 411 522 394 525C384 527 378 530 378 533C378 535 383 537 391 539C398 540 403 543 402 545C401 547 401 550 401 552C401 554 397 557 391 559C379 565 368 604 368 642V667H354C346 667 340 670 340 672C340 674 342 675 344 675C347 675 347 679 345 687C343 698 344 699 351 699C363 699 366 707 357 719C353 726 347 736 345 743C341 755 340 755 306 756H298C281 756 267 755 264 753ZM445 9C448 8 452 8 455 9C458 10 457 11 451 11C445 11 442 10 445 9ZM479 9C486 8 495 8 501 9C507 10 500 10 489 10C478 10 472 10 479 9Z" transform="translate(105.584, 200) scale(0.096, -0.096)" fill="#000000" />
  <path d="M289 789C289 788 303 786 319 785C336 784 345 784 342 786C339 788 315 790 301 790C294 790 289 790 289 789ZM161 67C157 66 152 66 149 67C146 68 149 68 156 68C163 68 165 68 161 67ZM122 70C119 69 115 69 112 70C109 71 111 72 117 72C123 72 125 71 122 70ZM434 111C430 110 419 110 415 111C409 112 414 113 424 113C434 113 440 112 434 111ZM318 662 332 656 321 653C318 652 308 652 297 652H270C248 653 226 655 220 655C207 655 212 660 231 663C243 665 257 666 273 666C292 666 310 665 318 662ZM237 756C233 754 225 749 218 743C211 737 203 733 197 733C191 733 182 725 171 712C161 701 150 692 147 692C144 692 139 688 137 685C134 681 123 678 103 678H74L101 675L127 673L100 672C78 672 72 669 72 665C72 661 77 658 89 658C103 658 105 658 103 652C102 648 98 636 96 626C90 600 70 560 60 553C48 545 49 539 63 539C70 539 78 538 79 536C83 528 75 515 66 515C59 515 59 515 63 512C71 506 61 495 49 495C41 495 38 492 36 475C35 464 33 453 32 450C31 447 33 441 35 440C37 439 39 433 38 426C37 420 34 388 33 355C32 322 30 293 29 289C27 283 21 281 9 281C9 281 -8 281 -8 281C-8 281 9 279 9 279L25 278V246C26 209 40 160 52 149C56 145 67 127 76 110C85 93 97 77 100 74C106 70 103 69 91 69C83 69 75 67 74 65C73 63 77 52 85 40C96 21 101 18 111 17C118 17 188 16 268 16H413L430 28C440 35 454 40 460 40C467 40 475 44 479 47C482 49 485 51 485 53C485 59 471 61 442 61C423 61 408 62 408 64C408 71 445 93 456 93C470 93 494 112 494 123C494 127 499 140 506 149C514 159 518 167 518 175C518 188 505 200 479 209C466 213 451 221 445 225C439 229 430 233 422 233C410 233 407 231 399 215C387 192 361 172 343 172C341 172 339 173 337 173C333 174 326 174 323 172C320 170 304 164 291 157C275 149 268 145 257 145C253 145 248 146 241 147C227 149 211 152 207 155C203 158 191 167 180 175C142 202 138 207 135 244L133 278L120 279H106L120 281L133 282V333V384L145 386C155 388 159 392 162 406C164 415 167 428 168 431C169 434 167 439 164 441C158 444 159 446 165 468C169 485 174 495 178 496C182 497 186 502 187 509C188 516 192 524 193 528C195 532 192 536 188 536C184 536 183 536 183 540C183 544 184 551 187 564C191 582 194 585 205 588C215 590 219 596 226 610C230 620 239 631 243 633C247 635 270 636 293 637C303 637 310 638 317 638C335 638 344 636 356 630C367 626 380 622 387 622C401 622 410 609 414 577C416 560 419 552 427 545L438 536H425C412 536 412 537 414 521C415 512 417 503 418 501C419 498 431 495 457 495H462C501 495 502 496 508 505C511 511 514 517 514 521C514 529 509 534 500 535L489 536L503 552C512 562 514 565 514 576C514 580 514 586 513 595C510 636 504 650 492 650C486 650 482 652 482 654C482 656 480 662 479 665C477 669 478 672 485 672C494 672 494 672 488 683C478 702 449 728 437 731C430 732 418 737 408 743C398 749 383 755 375 757C365 760 334 761 304 761C273 761 243 759 237 756Z" transform="translate(159.056, 200) scale(0.096, -0.096)" fill="#000000" />
  <path d="M80 760C78 753 70 744 64 741C55 737 52 732 49 710C46 687 44 685 34 684H24L36 682C43 681 47 677 47 673C47 670 52 658 58 648C58 648 68 630 68 630C68 630 58 630 58 630C50 630 47 630 47 623C47 612 65 577 71 577C75 577 78 575 78 568C78 562 76 555 74 542C71 525 68 505 68 495C68 484 65 477 62 477C59 477 59 476 62 474C65 472 68 446 69 403C70 384 70 371 70 361C70 341 69 335 66 335C59 335 57 329 53 305C51 291 50 291 36 290C36 290 20 289 20 289C20 289 36 287 36 287C52 286 51 285 51 268V241C51 235 52 229 54 226C56 223 58 211 58 195C58 175 55 150 52 138C41 98 39 85 39 65C39 34 51 23 82 23C96 23 107 22 111 18C114 15 124 12 133 12C142 12 145 13 141 14C133 16 133 16 141 24C149 32 153 80 154 161C154 179 157 181 169 184C179 187 183 191 183 194C183 197 179 199 170 199C156 199 154 199 155 212L158 225L193 229C205 230 215 231 224 231C248 231 260 225 273 212L288 199H261C245 199 232 197 232 193C232 187 249 182 271 181C292 180 295 178 298 166C301 154 325 128 334 128C336 128 343 118 349 107C356 95 363 83 371 80C382 74 396 59 396 52C396 50 386 49 375 49C364 49 354 46 354 44C354 42 367 40 380 40C406 40 408 37 408 19C408 12 411 11 428 11C448 11 449 11 456 29C462 42 463 55 463 69C463 90 457 118 445 166L442 181L412 183C388 184 382 185 381 191C380 197 383 198 396 199L414 201L402 215C392 228 387 232 373 232C360 232 354 234 344 244L332 256H352C363 256 372 258 371 260C361 281 357 285 351 285C345 285 346 287 350 290C354 292 353 294 344 301C338 305 327 314 320 320C312 327 299 331 288 333C275 335 267 338 267 343C267 345 269 347 271 350C273 352 277 360 278 364C280 371 278 373 274 373C270 373 268 376 268 383C268 393 268 394 285 394C301 394 304 395 306 403C307 408 308 411 308 414C308 421 304 423 293 423H278L289 433C295 437 303 448 305 456C309 469 335 506 343 509C345 510 360 523 377 536C396 552 408 564 408 568C408 574 411 577 418 577C426 577 429 581 436 601C439 612 441 618 441 622C441 626 439 627 436 629C429 633 429 636 435 653C438 662 440 668 440 675C440 685 436 693 428 704C422 713 420 716 413 716C410 716 406 716 401 715C388 713 379 709 371 700C361 689 357 688 325 685C307 684 300 683 300 683C300 683 305 682 314 682C327 682 339 679 339 677C339 675 330 666 320 656C310 646 301 636 301 634C301 632 309 630 319 630C329 630 340 630 340 627C340 624 332 612 320 599C299 578 297 577 279 577C259 577 246 569 246 557C246 544 230 535 209 535C190 535 187 536 184 546C182 552 180 584 180 618V680L164 682L149 684H163L179 685L175 705C174 716 170 730 167 734C164 738 159 744 159 746C159 748 157 752 154 754C152 756 149 761 149 764C149 768 141 770 117 771L84 773Z" transform="translate(210.89600000000002, 200) scale(0.096, -0.096)" fill="#000000" />
  <path d="M454 474C454 471 450 466 447 460C441 452 437 451 411 451C384 451 382 452 376 461C373 467 371 473 372 475C374 478 391 480 410 480C431 480 454 477 454 474ZM102 719C98 718 91 718 87 719C83 720 86 720 94 720C102 720 106 720 102 719ZM709 786C706 785 701 785 698 786C695 787 697 788 703 788C709 788 712 787 709 786ZM66 797C59 789 56 783 56 779C56 773 64 771 82 771C95 771 107 770 107 768C107 766 96 764 80 764H53V722V680L68 679C77 679 89 678 96 676C106 674 103 672 81 672H53V629V588H80C104 588 107 587 107 579C107 572 104 571 97 572H73H56V549C56 537 59 517 60 507L62 488L90 487L117 485H90C74 485 61 483 61 481C60 473 59 447 59 427C59 415 59 405 60 403C61 397 66 396 88 396C104 396 115 394 115 392C115 390 113 387 111 387C109 387 107 386 108 384C109 382 101 380 84 380H56V355C56 342 55 325 53 316L50 300H77L105 299L76 297L47 295L50 272C50 266 51 263 51 259C51 236 43 225 27 224H13L29 222C41 221 44 219 43 213C42 209 38 206 31 205C15 203 17 195 31 195C42 195 43 194 50 165C54 148 56 130 56 124C56 113 58 112 85 111L113 110L84 109H55L59 95C60 88 61 73 61 62C61 43 62 42 75 38C83 36 91 30 94 27C96 24 105 21 112 21C126 21 130 28 134 68C135 84 139 99 140 102C141 105 149 108 168 109L196 110L171 111C147 112 146 113 150 121C152 125 155 144 156 161L158 192H143C131 192 127 193 127 200C127 207 131 209 142 209C154 209 156 211 158 222C159 229 161 248 161 265V295L189 297L217 299L189 300H163L160 322C159 334 155 352 154 362C152 378 153 380 160 380C168 380 168 381 160 384C154 386 158 387 178 387C194 387 207 390 207 392C207 394 196 396 180 396H153V422C153 435 154 446 156 446C160 446 164 458 164 468C164 474 163 480 161 481C158 483 166 485 184 485H213L185 487C169 488 157 490 157 492C157 494 161 504 164 516L170 538H193C220 538 234 527 238 503L242 488L272 487H300L266 484C247 483 230 479 229 478C228 477 231 471 234 462C238 452 242 446 248 446C252 446 259 442 261 438C263 434 271 428 278 426C285 424 290 419 290 417C290 415 296 412 303 410C310 408 316 402 317 396C318 390 327 380 336 372C346 363 354 349 357 337C365 308 378 300 411 300C427 300 442 301 443 303C444 305 454 310 465 313C487 321 489 324 505 372C511 388 511 397 511 401C511 404 510 405 508 406C505 407 507 408 515 408C526 408 530 412 538 426L548 444H571C597 443 604 440 604 423C604 416 601 413 592 412C581 411 582 411 594 410C608 409 612 404 612 374C612 366 611 357 611 346L610 305L637 303L663 302L636 301C609 300 607 300 605 290C604 284 604 272 605 262C606 257 605 250 605 244C605 238 606 232 605 228C603 212 600 211 587 209C576 207 571 203 571 200C571 197 576 195 585 195H600L598 176C597 165 593 129 592 93L590 29L609 20C619 16 629 10 629 9C629 3 638 0 648 0C652 0 657 1 660 2C686 13 687 13 688 113L689 204L673 202C663 200 658 201 658 204C658 206 666 209 675 209C687 209 691 210 691 214C691 217 695 225 699 229C706 236 710 244 710 250C710 253 709 254 708 256C706 258 707 270 708 280L710 299L739 301L768 303H740L711 304L713 317C714 325 718 372 719 422C720 450 720 469 720 483C720 514 718 519 711 531C703 545 700 573 700 594C700 608 702 621 706 625C713 632 713 633 706 637C703 639 701 643 701 647C701 653 703 662 709 679C713 692 712 693 740 694H768L740 696L712 697L715 710C716 718 719 730 721 739C722 743 722 748 722 754C722 771 717 788 706 795C695 802 694 801 682 790C673 781 663 778 640 775C610 771 609 770 596 749C588 737 583 725 584 722C585 719 582 712 578 710C574 707 570 705 570 703C570 700 579 696 597 696L622 695L591 693C572 692 560 688 559 685C558 683 550 672 542 662C531 646 526 643 516 643C509 643 504 640 504 638C504 636 515 634 531 634C551 634 558 632 557 629C556 626 545 624 528 623C499 622 497 621 494 604L490 593L517 592H542L512 588C476 585 474 584 461 548C447 510 439 505 411 505C398 505 386 506 384 508C382 510 373 522 366 536C359 550 350 564 347 567C336 576 339 584 355 584C363 584 372 585 378 587C386 589 381 592 359 593C330 595 330 595 324 608C318 621 317 622 287 622C263 622 257 624 257 628C257 632 263 635 283 635H309L290 644C280 648 270 655 268 657C266 660 265 662 265 664C265 670 273 672 292 673L317 674L288 675C259 676 259 676 252 690C249 698 240 708 233 710C222 714 224 716 247 718L272 720L244 722C221 722 216 724 206 734C200 741 193 749 192 756C192 758 191 760 191 762C191 767 195 767 216 768L243 770L213 771C184 772 184 772 170 788L155 805L115 807L75 810ZM455 297C462 296 471 296 479 297C487 298 481 299 468 299C455 299 448 298 455 297ZM397 292C398 290 406 287 414 287C422 287 428 290 428 292C428 294 420 296 411 296C401 296 396 294 397 292ZM373 255C372 254 374 249 380 245C387 239 401 238 413 238C425 238 439 239 443 245C446 249 449 255 449 256C449 258 433 259 415 259C395 259 375 257 373 255Z" transform="translate(257.072, 200) scale(0.096, -0.096)" fill="#000000" />
  <path d="M110 777C123 776 139 776 151 776C164 776 176 776 182 777C186 778 188 779 188 779C188 780 174 780 142 780H131H60ZM409 62C425 61 432 59 432 58C432 56 401 54 342 53H311C258 53 227 56 227 58C227 59 240 61 267 63C291 65 315 65 338 65C364 65 387 64 409 62ZM361 92C381 91 403 88 403 85C403 83 372 81 300 81C240 81 193 83 193 85C193 88 267 95 299 95H308C316 95 340 93 361 92ZM88 763 58 760V736V712H43C30 712 28 711 30 703C31 699 33 689 33 686C33 680 37 679 46 679C53 679 58 677 58 675C58 673 52 672 45 672C35 672 33 671 35 665C36 662 37 656 37 654C37 652 42 650 49 650C60 650 61 649 63 633C64 624 65 608 65 589C65 548 62 494 59 483C56 471 53 468 42 467C31 466 29 465 29 454C29 443 31 442 43 442H57L55 397C54 385 53 375 53 366C53 340 57 332 65 330C74 328 80 291 80 249C80 235 79 219 78 205C76 183 75 160 75 150V141C75 123 71 105 65 105C62 105 63 104 66 102C70 99 69 98 59 98C50 98 45 94 45 92C45 89 51 85 63 84C72 83 74 81 75 68C76 59 75 52 73 52C69 52 69 31 73 24C75 21 97 20 170 20C194 20 223 21 260 21C379 22 443 24 446 27C448 29 452 36 453 44C455 56 456 56 447 54C439 52 438 52 442 60C445 66 447 70 447 73C447 79 441 81 430 81C417 81 413 82 415 88C416 91 419 97 419 100C419 104 425 105 439 105C459 105 464 110 454 117C448 120 433 123 423 123C420 123 416 123 415 122C414 120 362 119 300 119H263C186 119 184 119 182 127C181 131 181 137 182 138C183 139 210 141 241 141C454 142 459 143 459 149C459 165 450 176 434 178C425 179 415 178 413 176C411 174 382 172 351 172C320 172 292 170 290 168C284 164 251 161 224 161C207 161 194 162 191 164C182 171 177 208 177 265V272C177 325 177 327 207 327H211C227 327 272 329 311 330L382 332L379 360C376 394 371 407 364 410C361 411 352 416 343 420L328 426L310 414C298 405 286 401 269 401C257 401 242 403 223 406C185 414 182 417 179 430C177 439 173 441 164 443C157 444 152 448 151 454C151 456 150 457 150 458C150 462 156 463 178 463C195 463 202 463 202 464C202 465 199 466 194 468C186 471 179 478 177 486C174 495 170 500 162 500C154 500 152 501 152 509C152 517 154 520 162 521L173 522L164 533C155 544 149 569 149 586C149 593 150 597 152 599C156 605 156 607 152 609C148 611 147 619 149 632L152 650H136C126 650 119 653 119 656C119 670 124 672 244 673H363L243 674C178 675 123 677 123 679C123 681 126 685 129 687C131 689 135 690 142 690C151 690 165 689 193 685C197 684 200 685 203 685C212 685 221 688 231 692C244 698 261 700 277 700C294 700 307 697 316 690C323 686 327 684 334 684C338 684 343 685 350 686C367 689 372 691 376 700C380 709 384 712 393 712C401 712 405 714 405 720C405 724 404 733 398 744L390 761H259C187 761 125 762 122 763H112ZM203 610C202 608 205 605 208 604C212 603 219 602 227 602C237 602 247 603 247 605C247 609 230 614 218 614C211 614 204 612 203 610ZM349 607C349 603 352 602 360 602C366 602 372 603 382 604C392 606 398 607 398 609C398 611 389 614 373 614C354 614 349 611 349 607ZM311 471 301 463H336L371 462L353 471C342 477 336 478 329 478C322 478 317 475 311 471ZM291 447C281 441 282 442 301 442C322 442 323 441 310 448C304 451 299 451 291 447ZM437 99C440 98 446 98 450 99C454 100 452 101 445 101C438 101 434 100 437 99Z" transform="translate(331.18399999999997, 200) scale(0.096, -0.096)" fill="#000000" />
  <path d="M110 777C123 776 139 776 151 776C164 776 176 776 182 777C186 778 188 779 188 779C188 780 174 780 142 780H131H60ZM409 62C425 61 432 59 432 58C432 56 401 54 342 53H311C258 53 227 56 227 58C227 59 240 61 267 63C291 65 315 65 338 65C364 65 387 64 409 62ZM361 92C381 91 403 88 403 85C403 83 372 81 300 81C240 81 193 83 193 85C193 88 267 95 299 95H308C316 95 340 93 361 92ZM88 763 58 760V736V712H43C30 712 28 711 30 703C31 699 33 689 33 686C33 680 37 679 46 679C53 679 58 677 58 675C58 673 52 672 45 672C35 672 33 671 35 665C36 662 37 656 37 654C37 652 42 650 49 650C60 650 61 649 63 633C64 624 65 608 65 589C65 548 62 494 59 483C56 471 53 468 42 467C31 466 29 465 29 454C29 443 31 442 43 442H57L55 397C54 385 53 375 53 366C53 340 57 332 65 330C74 328 80 291 80 249C80 235 79 219 78 205C76 183 75 160 75 150V141C75 123 71 105 65 105C62 105 63 104 66 102C70 99 69 98 59 98C50 98 45 94 45 92C45 89 51 85 63 84C72 83 74 81 75 68C76 59 75 52 73 52C69 52 69 31 73 24C75 21 97 20 170 20C194 20 223 21 260 21C379 22 443 24 446 27C448 29 452 36 453 44C455 56 456 56 447 54C439 52 438 52 442 60C445 66 447 70 447 73C447 79 441 81 430 81C417 81 413 82 415 88C416 91 419 97 419 100C419 104 425 105 439 105C459 105 464 110 454 117C448 120 433 123 423 123C420 123 416 123 415 122C414 120 362 119 300 119H263C186 119 184 119 182 127C181 131 181 137 182 138C183 139 210 141 241 141C454 142 459 143 459 149C459 165 450 176 434 178C425 179 415 178 413 176C411 174 382 172 351 172C320 172 292 170 290 168C284 164 251 161 224 161C207 161 194 162 191 164C182 171 177 208 177 265V272C177 325 177 327 207 327H211C227 327 272 329 311 330L382 332L379 360C376 394 371 407 364 410C361 411 352 416 343 420L328 426L310 414C298 405 286 401 269 401C257 401 242 403 223 406C185 414 182 417 179 430C177 439 173 441 164 443C157 444 152 448 151 454C151 456 150 457 150 458C150 462 156 463 178 463C195 463 202 463 202 464C202 465 199 466 194 468C186 471 179 478 177 486C174 495 170 500 162 500C154 500 152 501 152 509C152 517 154 520 162 521L173 522L164 533C155 544 149 569 149 586C149 593 150 597 152 599C156 605 156 607 152 609C148 611 147 619 149 632L152 650H136C126 650 119 653 119 656C119 670 124 672 244 673H363L243 674C178 675 123 677 123 679C123 681 126 685 129 687C131 689 135 690 142 690C151 690 165 689 193 685C197 684 200 685 203 685C212 685 221 688 231 692C244 698 261 700 277 700C294 700 307 697 316 690C323 686 327 684 334 684C338 684 343 685 350 686C367 689 372 691 376 700C380 709 384 712 393 712C401 712 405 714 405 720C405 724 404 733 398 744L390 761H259C187 761 125 762 122 763H112ZM203 610C202 608 205 605 208 604C212 603 219 602 227 602C237 602 247 603 247 605C247 609 230 614 218 614C211 614 204 612 203 610ZM349 607C349 603 352 602 360 602C366 602 372 603 382 604C392 606 398 607 398 609C398 611 389 614 373 614C354 614 349 611 349 607ZM311 471 301 463H336L371 462L353 471C342 477 336 478 329 478C322 478 317 475 311 471ZM291 447C281 441 282 442 301 442C322 442 323 441 310 448C304 451 299 451 291 447ZM437 99C440 98 446 98 450 99C454 100 452 101 445 101C438 101 434 100 437 99Z" transform="translate(375.34399999999994, 200) scale(0.096, -0.096)" fill="#000000" />
</svg>